<svg version="1.1" xmlns="http://www.w3.org/2000/svg" xmlns:xlink="http://www.w3.org/1999/xlink">
    <symbol id="logo" viewBox="0 0 89 18">
        <path d="M15.3294 0.199951V17.0079H11.4721V10.1166H3.90029V17.0079H0.0429688V0.199951H3.90029V6.82707H11.4721V0.199951H15.3294Z"/>
        <path d="M29.694 17.0079L26.4795 12.3257H26.2891H22.9318V17.0079H19.0744V0.199951H26.2891C27.7653 0.199951 29.0432 0.448068 30.1226 0.944302C31.2179 1.44054 32.0592 2.14487 32.6465 3.0573C33.2338 3.96972 33.5275 5.05023 33.5275 6.29882C33.5275 7.54741 33.2259 8.62792 32.6227 9.54035C32.0354 10.4368 31.1941 11.1251 30.0988 11.6053L33.837 17.0079H29.694ZM29.6225 6.29882C29.6225 5.35438 29.3209 4.63404 28.7177 4.13781C28.1145 3.62556 27.2335 3.36944 26.0748 3.36944H22.9318V9.2282H26.0748C27.2335 9.2282 28.1145 8.97208 28.7177 8.45984C29.3209 7.9476 29.6225 7.22726 29.6225 6.29882Z"/>
        <path d="M55.1687 8.26775C56.1211 8.57189 56.8672 9.08413 57.4069 9.80447C57.9466 10.5088 58.2165 11.3812 58.2165 12.4217C58.2165 13.8944 57.645 15.0309 56.5021 15.8313C55.3751 16.6157 53.7242 17.0079 51.5495 17.0079H42.93V0.199951H51.0733C53.1051 0.199951 54.6608 0.592136 55.7402 1.37651C56.8355 2.16087 57.3831 3.22538 57.3831 4.57001C57.3831 5.38639 57.1847 6.11473 56.7878 6.75504C56.4069 7.39534 55.8672 7.89958 55.1687 8.26775ZM46.7635 3.12933V7.09119H50.5971C51.5495 7.09119 52.2717 6.92312 52.7638 6.58696C53.2559 6.2508 53.502 5.75457 53.502 5.09826C53.502 4.44195 53.2559 3.95372 52.7638 3.63357C52.2717 3.29741 51.5495 3.12933 50.5971 3.12933H46.7635ZM51.2638 14.0785C52.2797 14.0785 53.0416 13.9104 53.5496 13.5742C54.0734 13.2381 54.3353 12.7178 54.3353 12.0135C54.3353 10.6209 53.3115 9.92453 51.2638 9.92453H46.7635V14.0785H51.2638Z"/>
        <path d="M66.772 17.2C65.4227 17.2 64.2084 16.9198 63.129 16.3596C62.0654 15.7833 61.2321 14.9909 60.6288 13.9824C60.0256 12.974 59.724 11.8294 59.724 10.5488C59.724 9.26822 60.0256 8.12368 60.6288 7.11521C61.2321 6.10673 62.0654 5.32236 63.129 4.7621C64.2084 4.18583 65.4227 3.89769 66.772 3.89769C68.1213 3.89769 69.3277 4.18583 70.3912 4.7621C71.4548 5.32236 72.2881 6.10673 72.8913 7.11521C73.4945 8.12368 73.7961 9.26822 73.7961 10.5488C73.7961 11.8294 73.4945 12.974 72.8913 13.9824C72.2881 14.9909 71.4548 15.7833 70.3912 16.3596C69.3277 16.9198 68.1213 17.2 66.772 17.2ZM66.772 14.1265C67.7244 14.1265 68.5022 13.8064 69.1054 13.1661C69.7245 12.5097 70.0341 11.6373 70.0341 10.5488C70.0341 9.46031 69.7245 8.5959 69.1054 7.9556C68.5022 7.29929 67.7244 6.97114 66.772 6.97114C65.8196 6.97114 65.0338 7.29929 64.4147 7.9556C63.7957 8.5959 63.4861 9.46031 63.4861 10.5488C63.4861 11.6373 63.7957 12.5097 64.4147 13.1661C65.0338 13.8064 65.8196 14.1265 66.772 14.1265Z"/>
        <path d="M83.8285 17.0079L81.0188 13.046L78.1139 17.0079H74.0661L78.9949 10.5008L74.2328 4.08978H78.3997L81.1141 7.85956L83.8999 4.08978H87.8525L83.0904 10.4048L88.043 17.0079H83.8285Z"/>
    </symbol>

    <symbol id="project-vk" viewBox="0 0 82 16">
        <path fill-rule="evenodd" clip-rule="evenodd" d="M68.6038 4.70176C68.6841 8.71771 70.7971 11.1335 74.2817 11.1335H74.4918V8.8351C75.7583 8.96485 76.7098 9.91014 77.0929 11.1335H78.9217C78.4274 9.30466 77.1361 8.2914 76.3391 7.90834C77.1361 7.43261 78.2668 6.27107 78.5324 4.70176H76.8705C76.5245 5.98069 75.4865 7.13604 74.4918 7.24726V4.70176H72.7989V9.15638C71.7671 8.90307 70.4264 7.64885 70.3708 4.70176H68.6038ZM74.0469 15.446H73.4044H73.3455C69.8938 15.446 68.1528 15.446 67.0777 14.3648C65.9965 13.2774 65.9965 11.5351 65.9965 8.05045V7.39554V7.3369C65.9964 3.89735 65.9964 2.15635 67.0777 1.08122C68.1651 0 69.9136 0 73.4044 0H74.0469C77.5377 0 79.2862 0 80.3674 1.08122C81.4425 2.16862 81.4425 3.91092 81.4425 7.39554V8.05045C81.4425 11.5289 81.4425 13.2774 80.3674 14.3648C79.2862 15.446 77.5377 15.446 74.0469 15.446ZM10.5258 3.01894V15.9997H12.5849V10.9148C12.9549 11.3684 13.4323 11.7503 14.0172 12.0607C14.6021 12.3591 15.2705 12.5083 16.0225 12.5083C16.8939 12.5083 17.6757 12.3054 18.368 11.8995C19.0603 11.4818 19.5974 10.9088 19.9794 10.1807C20.3733 9.44067 20.5702 8.60513 20.5702 7.6741C20.5702 6.74307 20.3733 5.91349 19.9794 5.18538C19.5974 4.44533 19.0603 3.87239 18.368 3.46656C17.6757 3.04879 16.8939 2.8399 16.0225 2.8399C15.2467 2.8399 14.5603 3.00701 13.9635 3.34122C13.3667 3.6635 12.8773 4.0574 12.4953 4.52292L12.0656 3.01894H10.5258ZM17.616 9.84053C17.0789 10.3896 16.3806 10.6641 15.5212 10.6641C14.6498 10.6641 13.9396 10.3896 13.3906 9.84053C12.8534 9.27953 12.5849 8.55738 12.5849 7.6741C12.5849 6.79081 12.8534 6.07463 13.3906 5.52557C13.9396 4.96456 14.6498 4.68406 15.5212 4.68406C16.3806 4.68406 17.0789 4.96456 17.616 5.52557C18.1531 6.07463 18.4217 6.79081 18.4217 7.6741C18.4217 8.55738 18.1531 9.27953 17.616 9.84053ZM0 12.3293H2.05901V4.89891H6.14122V12.3293H8.20023V3.01894H0V12.3293ZM26.8034 12.5083C25.8485 12.5083 24.989 12.3054 24.2251 11.8995C23.4731 11.4818 22.8823 10.9088 22.4526 10.1807C22.0348 9.44067 21.8259 8.60513 21.8259 7.6741C21.8259 6.74307 22.0348 5.91349 22.4526 5.18538C22.8823 4.44533 23.4731 3.87239 24.2251 3.46656C24.989 3.04879 25.8485 2.8399 26.8034 2.8399C27.7583 2.8399 28.6117 3.04879 29.3637 3.46656C30.1276 3.87239 30.7185 4.44533 31.1362 5.18538C31.5659 5.91349 31.7808 6.74307 31.7808 7.6741C31.7808 8.60513 31.5659 9.44067 31.1362 10.1807C30.7185 10.9088 30.1276 11.4818 29.3637 11.8995C28.6117 12.3054 27.7583 12.5083 26.8034 12.5083ZM26.8034 10.6283C27.6389 10.6283 28.3193 10.3598 28.8445 9.82263C29.3697 9.27356 29.6323 8.55738 29.6323 7.6741C29.6323 6.79081 29.3697 6.0806 28.8445 5.54347C28.3193 4.9944 27.6389 4.71987 26.8034 4.71987C25.9678 4.71987 25.2874 4.9944 24.7623 5.54347C24.2371 6.0806 23.9745 6.79081 23.9745 7.6741C23.9745 8.55738 24.2371 9.27356 24.7623 9.82263C25.2874 10.3598 25.9678 10.6283 26.8034 10.6283ZM42.6663 8.22914C42.6901 7.96654 42.7021 7.74572 42.7021 7.56667C42.7021 6.68339 42.4932 5.88365 42.0754 5.16748C41.6696 4.43936 41.0966 3.87239 40.3566 3.46656C39.6285 3.04879 38.7989 2.8399 37.8679 2.8399C36.9368 2.8399 36.1013 3.04879 35.3613 3.46656C34.6331 3.87239 34.0602 4.44533 33.6424 5.18538C33.2366 5.91349 33.0337 6.74307 33.0337 7.6741C33.0337 8.60513 33.2366 9.44067 33.6424 10.1807C34.0602 10.9088 34.6331 11.4818 35.3613 11.8995C36.1013 12.3054 36.9368 12.5083 37.8679 12.5083C38.8705 12.5083 39.7777 12.2755 40.5894 11.81C41.413 11.3445 41.9919 10.682 42.3261 9.82263L40.3924 9.50035C40.1656 9.8465 39.8374 10.121 39.4077 10.324C38.9899 10.5269 38.5184 10.6283 37.9932 10.6283C37.2174 10.6283 36.5788 10.4135 36.0774 9.98377C35.5761 9.54213 35.2777 8.95725 35.1822 8.22914H42.6663ZM36.2386 5.16748C36.7041 4.80939 37.2472 4.63034 37.8679 4.63034C38.5005 4.63034 39.0436 4.81536 39.4972 5.18538C39.9627 5.54347 40.285 6.02092 40.464 6.61774H35.3075C35.4747 6.00899 35.785 5.52557 36.2386 5.16748ZM52.7932 12.3293H50.0896L46.8668 8.62303H46.3655V12.3293H44.3065V3.01894H46.3655V6.63564H46.8668L49.9822 3.01894H52.4351L48.514 7.49505L52.7932 12.3293ZM56.2857 12.3293H58.3447V4.89891H61.5675V3.01894H53.0629V4.89891H56.2857V12.3293Z"/>
    </symbol>

    <symbol id="linkedin" viewBox="0 0 32 32">
        <rect width="32" height="32" rx="10" fill="#090909"/>
        <path d="M22.7369 16.6269V21.2717H20.018V16.9101C20.018 15.8339 19.6215 15.0975 18.6585 15.0975C17.9221 15.0975 17.469 15.6073 17.2991 16.0604C17.2424 16.2304 17.1858 16.457 17.1858 16.7402V21.2717H14.4669C14.4669 21.2717 14.5235 13.908 14.4669 13.1716H17.1858V14.3045C17.5256 13.738 18.2054 12.945 19.6215 12.945C21.3774 12.945 22.7369 14.1346 22.7369 16.6269ZM11.6347 9.26318C10.7284 9.26318 10.1053 9.88627 10.1053 10.6793C10.1053 11.4723 10.6717 12.0954 11.578 12.0954C12.541 12.0954 13.1074 11.4723 13.1074 10.6793C13.1641 9.82962 12.5976 9.26318 11.6347 9.26318ZM10.2752 21.2717H12.9941V13.1716H10.2752V21.2717Z" fill="white"/>
    </symbol>

    <symbol id="fb" viewBox="0 0 32 32">
        <rect width="32" height="32" rx="10" fill="#090909"/>
        <path d="M23.579 10.7945C23.579 9.53352 22.4663 8.4209 21.2054 8.4209H11.6368C10.3758 8.4209 9.26318 9.53352 9.26318 10.7945V20.3631C9.26318 21.6241 10.3758 22.7367 11.6368 22.7367H16.4582V17.3219H14.678V14.9483H16.4582V13.984C16.4582 12.3522 17.645 10.9428 19.1285 10.9428H21.057V13.3164H19.1285C18.9059 13.3164 18.6834 13.539 18.6834 13.984V14.9483H21.057V17.3219H18.6834V22.7367H21.2054C22.4663 22.7367 23.579 21.6241 23.579 20.3631V10.7945Z" fill="white"/>    
    </symbol>

    <symbol id="insta" viewBox="0 0 32 32">
        <rect width="32" height="32" rx="10" fill="#090909"/>
        <path d="M21.5417 9.26318H11.3004C10.1442 9.26318 9.26318 10.1442 9.26318 11.3004V21.5417C9.26318 22.698 10.1442 23.579 11.3004 23.579H21.5417C22.698 23.579 23.579 22.698 23.579 21.5417V11.3004C23.579 10.1442 22.698 9.26318 21.5417 9.26318ZM16.4211 20.7158C18.7887 20.7158 20.7158 18.8437 20.7158 16.5863C20.7158 16.2008 20.6608 15.7603 20.5506 15.43H21.762V21.2664C21.762 21.5417 21.5417 21.817 21.2114 21.817H11.6308C11.3555 21.817 11.0802 21.5968 11.0802 21.2664V15.3749H12.3466C12.2365 15.7603 12.1814 16.1458 12.1814 16.5312C12.1263 18.8438 14.0535 20.7158 16.4211 20.7158ZM16.4211 19.064C14.8794 19.064 13.668 17.8527 13.668 16.366C13.668 14.8794 14.8794 13.668 16.4211 13.668C17.9628 13.668 19.1741 14.8794 19.1741 16.366C19.1741 17.9077 17.9628 19.064 16.4211 19.064ZM21.7069 13.1725C21.7069 13.5029 21.4316 13.7782 21.1012 13.7782H19.5595C19.2292 13.7782 18.9539 13.5029 18.9539 13.1725V11.6859C18.9539 11.3555 19.2292 11.0802 19.5595 11.0802H21.1012C21.4316 11.0802 21.7069 11.3555 21.7069 11.6859V13.1725Z" fill="white"/>
    </symbol>

    <symbol id="vk" viewBox="0 0 32 32">
        <rect width="32" height="32" rx="10" fill="#090909"/>
        <path d="M24.2575 20.3072C24.2575 20.2373 24.1876 20.2373 24.1876 20.1673C23.908 19.608 23.2787 18.9089 22.4398 18.1398C22.0203 17.7903 21.8105 17.5106 21.6707 17.3708C21.461 17.0911 21.461 16.8814 21.5309 16.6017C21.6008 16.392 21.8805 16.0424 22.3699 15.4132C22.6495 15.0636 22.7893 14.8539 22.9991 14.6441C24.0478 13.2459 24.5372 12.337 24.3974 11.9175L24.3275 11.8476C24.2575 11.7777 24.1876 11.7078 24.0478 11.7078C23.908 11.6378 23.6982 11.6378 23.4885 11.7078H20.8318C20.7618 11.7078 20.7618 11.7078 20.622 11.7078C20.5521 11.7078 20.4822 11.7078 20.4822 11.7078H20.4123H20.3423L20.2724 11.7777C20.2025 11.8476 20.2025 11.8476 20.2025 11.9175C19.9229 12.6865 19.5733 13.3158 19.2237 14.0149C19.014 14.3645 18.8042 14.7141 18.5945 14.9937C18.3848 15.2734 18.2449 15.4831 18.1051 15.6229C17.9653 15.7628 17.8254 15.8327 17.7555 15.9725C17.6856 16.0424 17.5458 16.1123 17.5458 16.0424C17.4759 16.0424 17.406 16.0424 17.406 15.9725C17.336 15.9026 17.2661 15.8327 17.1962 15.7628C17.1263 15.6928 17.1263 15.553 17.0564 15.4132C17.0564 15.2734 17.0564 15.1335 17.0564 15.0636C17.0564 14.9937 17.0564 14.784 17.0564 14.6441C17.0564 14.4344 17.0564 14.2946 17.0564 14.2247C17.0564 14.0149 17.0564 13.7353 17.0564 13.4556C17.0564 13.1759 17.0564 12.9662 17.0564 12.8264C17.0564 12.6865 17.0564 12.4768 17.0564 12.337C17.0564 12.1272 17.0564 11.9874 17.0564 11.9175C17.0564 11.8476 16.9865 11.7077 16.9865 11.6378C16.9166 11.5679 16.8466 11.498 16.7767 11.4281C16.7068 11.3582 16.567 11.3582 16.4971 11.2883C16.1475 11.2183 15.728 11.1484 15.2386 11.1484C14.12 11.1484 13.3509 11.2184 13.0713 11.3582C12.9315 11.4281 12.7916 11.498 12.7217 11.6378C12.5819 11.7777 12.5819 11.8476 12.6518 11.8476C13.0014 11.9175 13.281 12.0573 13.4209 12.2671L13.4908 12.4069C13.5607 12.4768 13.5607 12.6166 13.6306 12.8264C13.7005 13.0361 13.7005 13.2459 13.7005 13.5255C13.7005 13.945 13.7005 14.3645 13.7005 14.6441C13.7005 14.9937 13.6306 15.2034 13.6306 15.4132C13.6306 15.6229 13.5607 15.7628 13.4908 15.8327C13.4209 15.9725 13.4209 16.0424 13.3509 16.0424C13.3509 16.0424 13.3509 16.1123 13.281 16.1123C13.2111 16.1123 13.1412 16.1822 13.0014 16.1822C12.9315 16.1822 12.7916 16.1123 12.7217 16.0424C12.5819 15.9725 12.4421 15.8327 12.3722 15.6928C12.2323 15.553 12.0925 15.3433 11.9527 15.0636C11.8128 14.784 11.6031 14.5043 11.4633 14.0848L11.3234 13.8052C11.2535 13.6653 11.1137 13.3857 10.9739 13.0361C10.834 12.6865 10.6942 12.4069 10.5544 12.0573C10.4845 11.9175 10.4146 11.8476 10.3447 11.7777H10.2747C10.2747 11.7777 10.2048 11.7078 10.1349 11.7078C10.065 11.7078 9.99508 11.6378 9.92516 11.6378H7.40825C7.1286 11.6378 6.98877 11.7077 6.91886 11.7777L6.84894 11.8476C6.84894 11.8476 6.84894 11.9175 6.84894 11.9874C6.84894 12.0573 6.84894 12.1272 6.91886 12.2671C7.26843 13.106 7.68791 13.945 8.10739 14.784C8.52688 15.553 8.94637 16.2522 9.22602 16.7416C9.57559 17.231 9.85524 17.7204 10.2048 18.1398C10.5544 18.5593 10.7641 18.839 10.834 18.9788C10.9739 19.1186 11.0438 19.1885 11.1137 19.2585L11.3234 19.4682C11.4633 19.608 11.673 19.8178 11.9527 20.0275C12.2323 20.2373 12.5819 20.447 12.9315 20.6567C13.281 20.8665 13.7005 21.0063 14.12 21.1461C14.6094 21.286 15.0289 21.3559 15.4484 21.286H16.4971C16.7068 21.286 16.8467 21.2161 16.9865 21.0762L17.0564 21.0063C17.0564 20.9364 17.1263 20.9364 17.1263 20.8665C17.1263 20.7966 17.1263 20.7267 17.1263 20.5868C17.1263 20.3072 17.1263 20.0974 17.1962 19.8877C17.2661 19.678 17.2661 19.5381 17.3361 19.3983C17.406 19.2585 17.4759 19.1885 17.5458 19.1186C17.6157 19.0487 17.6856 18.9788 17.6856 18.9788H17.7555C17.8953 18.9089 18.1051 18.9788 18.2449 19.1186C18.4547 19.2585 18.6644 19.4682 18.8042 19.6779C18.9441 19.8877 19.1538 20.0974 19.4335 20.3771C19.7131 20.6567 19.9229 20.8665 20.0627 20.9364L20.2724 21.0762C20.4123 21.1461 20.5521 21.2161 20.7618 21.286C20.9716 21.3559 21.1114 21.3559 21.2512 21.3559L23.6283 21.286C23.8381 21.286 24.0478 21.2161 24.1876 21.1461C24.3274 21.0762 24.3974 21.0063 24.3974 20.8665C24.3974 20.7966 24.3974 20.6567 24.3974 20.5868C24.2575 20.447 24.2575 20.3771 24.2575 20.3072Z" fill="white"/>
    </symbol>

    <symbol id="yt" viewBox="0 0 32 32">
        <rect width="32" height="32" rx="10" fill="#090909"/>
        <path d="M23.3374 15.0846C23.3374 14.758 23.283 14.3769 23.283 13.9414C23.2285 13.5059 23.1741 13.0704 23.1196 12.6893C23.0108 12.2538 22.8474 11.9272 22.5208 11.655C22.2486 11.3828 21.8675 11.2195 21.4865 11.165C20.2344 11.0017 18.3834 10.9473 15.8792 10.9473C13.375 10.9473 11.4697 11.0017 10.272 11.165C9.89093 11.2195 9.50986 11.3828 9.23767 11.655C8.96547 11.9272 8.74771 12.2538 8.63883 12.6893C8.52996 13.0704 8.47552 13.4515 8.47552 13.9414C8.42108 14.3769 8.42108 14.758 8.42108 15.0846C8.42108 15.4113 8.42108 15.7923 8.42108 16.3367C8.42108 16.8811 8.42108 17.3166 8.42108 17.5888C8.42108 17.9155 8.47552 18.2966 8.47552 18.7321C8.52996 19.1676 8.5844 19.6031 8.63883 19.9842C8.74771 20.4197 8.91103 20.7463 9.23767 21.0185C9.50986 21.2907 9.89093 21.454 10.272 21.5085C11.5241 21.6718 13.375 21.7262 15.8792 21.7262C18.3834 21.7262 20.2888 21.6718 21.4865 21.5085C21.8675 21.454 22.2486 21.2907 22.5208 21.0185C22.793 20.7463 23.0108 20.4197 23.1196 19.9842C23.2285 19.6031 23.283 19.222 23.283 18.7321C23.3374 18.2966 23.3374 17.9155 23.3374 17.5888C23.3374 17.2622 23.3374 16.8811 23.3374 16.3367C23.3374 15.7923 23.3374 15.3568 23.3374 15.0846ZM18.7645 16.7723L14.4638 19.4398C14.4094 19.4942 14.3005 19.5487 14.1916 19.5487C14.0828 19.5487 14.0283 19.5486 13.9194 19.4942C13.7561 19.3853 13.6472 19.222 13.6472 19.0043V13.6148C13.6472 13.397 13.7561 13.2337 13.9194 13.1248C14.0828 13.016 14.3005 13.016 14.4638 13.1248L18.7645 15.7923C18.9278 15.9012 19.0367 16.0645 19.0367 16.2279C19.0367 16.3912 18.9278 16.6634 18.7645 16.7723Z" fill="white"/>
    </symbol>

    <symbol id="ok" viewBox="0 0 32 32">
        <rect width="32" height="32" rx="10" fill="#090909"/>
        <path d="M21.2528 18.3518C21.6947 17.91 21.7578 17.2787 21.379 16.6475C21.0634 16.1425 20.4953 15.89 19.864 16.0162C19.6115 16.0793 19.359 16.2056 19.1065 16.395C17.1496 17.7206 14.4984 17.6575 12.5415 16.3318C12.4153 16.2687 12.289 16.2056 12.1628 16.1425C11.4684 15.8268 10.774 15.9531 10.3953 16.5843C9.95339 17.2156 10.0165 17.91 10.5846 18.4781C10.7109 18.6043 10.8371 18.6675 10.9003 18.7937L10.9634 18.8568C11.8471 19.5512 12.9203 19.9931 14.309 20.1825L13.4884 21.0031C12.794 21.6975 12.0365 22.455 11.3421 23.1493C11.1528 23.3387 10.9003 23.6543 10.9003 24.0962C10.9003 24.6643 11.2159 25.2325 11.784 25.485C11.9734 25.6112 12.1628 25.6112 12.3521 25.6112C12.6678 25.6112 13.0465 25.485 13.299 25.1693C14.2459 24.2225 15.0034 23.465 15.7609 22.7075C15.824 22.6443 15.824 22.6443 15.824 22.6443C15.824 22.6443 15.8871 22.6443 15.8871 22.7075C16.3921 23.2756 16.9603 23.7806 17.4653 24.3487C17.7178 24.6012 17.9703 24.8537 18.2228 25.1062C18.5384 25.4218 18.7909 25.5481 19.1696 25.5481C19.7378 25.6112 20.369 25.2325 20.6215 24.6643C20.874 24.1593 20.7478 23.5281 20.3059 23.1493C19.6747 22.5181 19.0434 21.8237 18.349 21.1925L17.2759 20.1193C17.844 20.0562 18.4753 19.93 19.0434 19.6775C19.9903 19.3618 20.6847 18.92 21.2528 18.3518Z" fill="white"/>
        <path d="M15.824 16.5843C18.5384 16.5843 20.7478 14.4381 20.7478 11.7237C20.7478 10.3981 20.2428 9.13557 19.2959 8.18869C18.349 7.24182 17.1496 6.73682 15.8871 6.73682C13.1728 6.73682 11.0265 8.94619 10.9634 11.5974C10.9634 12.9231 11.4684 14.1224 12.4153 15.0693C13.299 16.0793 14.4984 16.5843 15.824 16.5843ZM14.4353 10.2718C14.814 9.89307 15.319 9.70369 15.824 9.70369C16.9603 9.70369 17.7809 10.5874 17.7809 11.6606C17.7809 12.7968 16.8971 13.6174 15.824 13.6174C14.6878 13.6174 13.8671 12.7337 13.8671 11.6606C13.8671 11.1556 14.0565 10.6506 14.4353 10.2718Z" fill="white"/>
        <path d="M21.2528 18.3518C21.6947 17.91 21.7578 17.2787 21.379 16.6475C21.0634 16.1425 20.4953 15.89 19.864 16.0162C19.6115 16.0793 19.359 16.2056 19.1065 16.395C17.1496 17.7206 14.4984 17.6575 12.5415 16.3318C12.4153 16.2687 12.289 16.2056 12.1628 16.1425C11.4684 15.8268 10.774 15.9531 10.3953 16.5843C9.95339 17.2156 10.0165 17.91 10.5846 18.4781C10.7109 18.6043 10.8371 18.6675 10.9003 18.7937L10.9634 18.8568C11.8471 19.5512 12.9203 19.9931 14.309 20.1825L13.4884 21.0031C12.794 21.6975 12.0365 22.455 11.3421 23.1493C11.1528 23.3387 10.9003 23.6543 10.9003 24.0962C10.9003 24.6643 11.2159 25.2325 11.784 25.485C11.9734 25.6112 12.1628 25.6112 12.3521 25.6112C12.6678 25.6112 13.0465 25.485 13.299 25.1693C14.2459 24.2225 15.0034 23.465 15.7609 22.7075C15.824 22.6443 15.824 22.6443 15.824 22.6443C15.824 22.6443 15.8871 22.6443 15.8871 22.7075C16.3921 23.2756 16.9603 23.7806 17.4653 24.3487C17.7178 24.6012 17.9703 24.8537 18.2228 25.1062C18.5384 25.4218 18.7909 25.5481 19.1696 25.5481C19.7378 25.6112 20.369 25.2325 20.6215 24.6643C20.874 24.1593 20.7478 23.5281 20.3059 23.1493C19.6747 22.5181 19.0434 21.8237 18.349 21.1925L17.2759 20.1193C17.844 20.0562 18.4753 19.93 19.0434 19.6775C19.9903 19.3618 20.6847 18.92 21.2528 18.3518Z" fill="white"/>
    </symbol>

</svg>

